<mxfile host="app.diagrams.net" modified="2022-10-04T00:27:53.764Z" agent="5.0 (Windows NT 10.0; Win64; x64) AppleWebKit/537.36 (KHTML, like Gecko) Chrome/104.0.5112.102 Safari/537.36 OPR/90.0.4480.117" etag="GONbxabEVj3E3Fmj-zal" version="20.4.0" type="github">
  <diagram id="C5RBs43oDa-KdzZeNtuy" name="Page-1">
    <mxGraphModel dx="997" dy="548" grid="0" gridSize="10" guides="1" tooltips="1" connect="1" arrows="1" fold="1" page="1" pageScale="1" pageWidth="827" pageHeight="1169" math="0" shadow="0">
      <root>
        <mxCell id="WIyWlLk6GJQsqaUBKTNV-0" />
        <mxCell id="WIyWlLk6GJQsqaUBKTNV-1" parent="WIyWlLk6GJQsqaUBKTNV-0" />
        <mxCell id="7SUKBqgLfpLNqHMNBb7P-4" value="Pessoa" style="swimlane;fontStyle=1;childLayout=stackLayout;horizontal=1;startSize=26;fillColor=none;horizontalStack=0;resizeParent=1;resizeParentMax=0;resizeLast=0;collapsible=1;marginBottom=0;" vertex="1" parent="WIyWlLk6GJQsqaUBKTNV-1">
          <mxGeometry x="136" y="164" width="140" height="78" as="geometry" />
        </mxCell>
        <mxCell id="7SUKBqgLfpLNqHMNBb7P-5" value="+ Nome: String" style="text;strokeColor=none;fillColor=none;align=left;verticalAlign=top;spacingLeft=4;spacingRight=4;overflow=hidden;rotatable=0;points=[[0,0.5],[1,0.5]];portConstraint=eastwest;" vertex="1" parent="7SUKBqgLfpLNqHMNBb7P-4">
          <mxGeometry y="26" width="140" height="26" as="geometry" />
        </mxCell>
        <mxCell id="7SUKBqgLfpLNqHMNBb7P-7" value="+ cpf: String" style="text;strokeColor=none;fillColor=none;align=left;verticalAlign=top;spacingLeft=4;spacingRight=4;overflow=hidden;rotatable=0;points=[[0,0.5],[1,0.5]];portConstraint=eastwest;" vertex="1" parent="7SUKBqgLfpLNqHMNBb7P-4">
          <mxGeometry y="52" width="140" height="26" as="geometry" />
        </mxCell>
        <mxCell id="7SUKBqgLfpLNqHMNBb7P-17" style="edgeStyle=orthogonalEdgeStyle;rounded=0;orthogonalLoop=1;jettySize=auto;html=1;entryX=0.451;entryY=1.038;entryDx=0;entryDy=0;entryPerimeter=0;endArrow=block;endFill=0;" edge="1" parent="WIyWlLk6GJQsqaUBKTNV-1" source="7SUKBqgLfpLNqHMNBb7P-8" target="7SUKBqgLfpLNqHMNBb7P-7">
          <mxGeometry relative="1" as="geometry" />
        </mxCell>
        <mxCell id="7SUKBqgLfpLNqHMNBb7P-18" value="&amp;lt;&amp;lt;Extends&amp;gt;&amp;gt;" style="edgeLabel;html=1;align=center;verticalAlign=middle;resizable=0;points=[];" vertex="1" connectable="0" parent="7SUKBqgLfpLNqHMNBb7P-17">
          <mxGeometry x="-0.2084" y="-1" relative="1" as="geometry">
            <mxPoint x="32" as="offset" />
          </mxGeometry>
        </mxCell>
        <mxCell id="7SUKBqgLfpLNqHMNBb7P-8" value="Professor" style="swimlane;fontStyle=1;childLayout=stackLayout;horizontal=1;startSize=26;fillColor=none;horizontalStack=0;resizeParent=1;resizeParentMax=0;resizeLast=0;collapsible=1;marginBottom=0;" vertex="1" parent="WIyWlLk6GJQsqaUBKTNV-1">
          <mxGeometry x="24" y="320" width="140" height="78" as="geometry" />
        </mxCell>
        <mxCell id="7SUKBqgLfpLNqHMNBb7P-9" value="+ areaHabilitado: String" style="text;strokeColor=none;fillColor=none;align=left;verticalAlign=top;spacingLeft=4;spacingRight=4;overflow=hidden;rotatable=0;points=[[0,0.5],[1,0.5]];portConstraint=eastwest;" vertex="1" parent="7SUKBqgLfpLNqHMNBb7P-8">
          <mxGeometry y="26" width="140" height="26" as="geometry" />
        </mxCell>
        <mxCell id="7SUKBqgLfpLNqHMNBb7P-10" value="+ nome: String" style="text;strokeColor=none;fillColor=none;align=left;verticalAlign=top;spacingLeft=4;spacingRight=4;overflow=hidden;rotatable=0;points=[[0,0.5],[1,0.5]];portConstraint=eastwest;" vertex="1" parent="7SUKBqgLfpLNqHMNBb7P-8">
          <mxGeometry y="52" width="140" height="26" as="geometry" />
        </mxCell>
        <mxCell id="7SUKBqgLfpLNqHMNBb7P-16" value="&amp;lt;&amp;lt;Extends&amp;gt;&amp;gt;" style="edgeStyle=orthogonalEdgeStyle;rounded=0;orthogonalLoop=1;jettySize=auto;html=1;exitX=0.5;exitY=0;exitDx=0;exitDy=0;entryX=0.497;entryY=1.038;entryDx=0;entryDy=0;entryPerimeter=0;endArrow=block;endFill=0;" edge="1" parent="WIyWlLk6GJQsqaUBKTNV-1" source="7SUKBqgLfpLNqHMNBb7P-12" target="7SUKBqgLfpLNqHMNBb7P-7">
          <mxGeometry relative="1" as="geometry" />
        </mxCell>
        <mxCell id="7SUKBqgLfpLNqHMNBb7P-64" style="edgeStyle=orthogonalEdgeStyle;rounded=0;orthogonalLoop=1;jettySize=auto;html=1;entryX=0.583;entryY=0.018;entryDx=0;entryDy=0;entryPerimeter=0;startArrow=open;startFill=0;endArrow=none;endFill=0;" edge="1" parent="WIyWlLk6GJQsqaUBKTNV-1" source="7SUKBqgLfpLNqHMNBb7P-12" target="7SUKBqgLfpLNqHMNBb7P-63">
          <mxGeometry relative="1" as="geometry" />
        </mxCell>
        <mxCell id="7SUKBqgLfpLNqHMNBb7P-12" value="Aluno" style="swimlane;fontStyle=1;childLayout=stackLayout;horizontal=1;startSize=26;fillColor=none;horizontalStack=0;resizeParent=1;resizeParentMax=0;resizeLast=0;collapsible=1;marginBottom=0;" vertex="1" parent="WIyWlLk6GJQsqaUBKTNV-1">
          <mxGeometry x="238" y="323" width="140" height="76" as="geometry" />
        </mxCell>
        <mxCell id="7SUKBqgLfpLNqHMNBb7P-13" value="+ matricula: String" style="text;strokeColor=none;fillColor=none;align=left;verticalAlign=top;spacingLeft=4;spacingRight=4;overflow=hidden;rotatable=0;points=[[0,0.5],[1,0.5]];portConstraint=eastwest;" vertex="1" parent="7SUKBqgLfpLNqHMNBb7P-12">
          <mxGeometry y="26" width="140" height="26" as="geometry" />
        </mxCell>
        <mxCell id="7SUKBqgLfpLNqHMNBb7P-54" value="+ nota: float" style="text;strokeColor=none;fillColor=none;align=left;verticalAlign=top;spacingLeft=4;spacingRight=4;overflow=hidden;rotatable=0;points=[[0,0.5],[1,0.5]];portConstraint=eastwest;" vertex="1" parent="7SUKBqgLfpLNqHMNBb7P-12">
          <mxGeometry y="52" width="140" height="24" as="geometry" />
        </mxCell>
        <mxCell id="7SUKBqgLfpLNqHMNBb7P-23" value="Curso" style="swimlane;fontStyle=1;align=center;verticalAlign=top;childLayout=stackLayout;horizontal=1;startSize=26;horizontalStack=0;resizeParent=1;resizeParentMax=0;resizeLast=0;collapsible=1;marginBottom=0;" vertex="1" parent="WIyWlLk6GJQsqaUBKTNV-1">
          <mxGeometry x="473" y="268" width="184" height="86" as="geometry" />
        </mxCell>
        <mxCell id="7SUKBqgLfpLNqHMNBb7P-24" value="+ nomeCurso: String" style="text;strokeColor=none;fillColor=none;align=left;verticalAlign=top;spacingLeft=4;spacingRight=4;overflow=hidden;rotatable=0;points=[[0,0.5],[1,0.5]];portConstraint=eastwest;" vertex="1" parent="7SUKBqgLfpLNqHMNBb7P-23">
          <mxGeometry y="26" width="184" height="26" as="geometry" />
        </mxCell>
        <mxCell id="7SUKBqgLfpLNqHMNBb7P-25" value="" style="line;strokeWidth=1;fillColor=none;align=left;verticalAlign=middle;spacingTop=-1;spacingLeft=3;spacingRight=3;rotatable=0;labelPosition=right;points=[];portConstraint=eastwest;strokeColor=inherit;" vertex="1" parent="7SUKBqgLfpLNqHMNBb7P-23">
          <mxGeometry y="52" width="184" height="8" as="geometry" />
        </mxCell>
        <mxCell id="7SUKBqgLfpLNqHMNBb7P-26" value="+ guardaInscricao(Aluno): List" style="text;strokeColor=none;fillColor=none;align=left;verticalAlign=top;spacingLeft=4;spacingRight=4;overflow=hidden;rotatable=0;points=[[0,0.5],[1,0.5]];portConstraint=eastwest;" vertex="1" parent="7SUKBqgLfpLNqHMNBb7P-23">
          <mxGeometry y="60" width="184" height="26" as="geometry" />
        </mxCell>
        <mxCell id="7SUKBqgLfpLNqHMNBb7P-27" value="Inscreve-se" style="edgeStyle=orthogonalEdgeStyle;rounded=0;orthogonalLoop=1;jettySize=auto;html=1;endArrow=open;endFill=0;exitX=1;exitY=0.25;exitDx=0;exitDy=0;" edge="1" parent="WIyWlLk6GJQsqaUBKTNV-1" source="7SUKBqgLfpLNqHMNBb7P-12" target="7SUKBqgLfpLNqHMNBb7P-26">
          <mxGeometry relative="1" as="geometry">
            <mxPoint x="378" y="388" as="sourcePoint" />
          </mxGeometry>
        </mxCell>
        <mxCell id="7SUKBqgLfpLNqHMNBb7P-55" style="edgeStyle=orthogonalEdgeStyle;rounded=0;orthogonalLoop=1;jettySize=auto;html=1;endArrow=none;endFill=0;startArrow=diamond;startFill=1;" edge="1" parent="WIyWlLk6GJQsqaUBKTNV-1" source="7SUKBqgLfpLNqHMNBb7P-28" target="7SUKBqgLfpLNqHMNBb7P-23">
          <mxGeometry relative="1" as="geometry" />
        </mxCell>
        <mxCell id="7SUKBqgLfpLNqHMNBb7P-28" value="Serie" style="swimlane;fontStyle=0;childLayout=stackLayout;horizontal=1;startSize=26;fillColor=none;horizontalStack=0;resizeParent=1;resizeParentMax=0;resizeLast=0;collapsible=1;marginBottom=0;" vertex="1" parent="WIyWlLk6GJQsqaUBKTNV-1">
          <mxGeometry x="560" y="407" width="140" height="130" as="geometry" />
        </mxCell>
        <mxCell id="7SUKBqgLfpLNqHMNBb7P-29" value="+ numSerie: int" style="text;strokeColor=none;fillColor=none;align=left;verticalAlign=top;spacingLeft=4;spacingRight=4;overflow=hidden;rotatable=0;points=[[0,0.5],[1,0.5]];portConstraint=eastwest;" vertex="1" parent="7SUKBqgLfpLNqHMNBb7P-28">
          <mxGeometry y="26" width="140" height="26" as="geometry" />
        </mxCell>
        <mxCell id="7SUKBqgLfpLNqHMNBb7P-30" value="+ semestre: int" style="text;strokeColor=none;fillColor=none;align=left;verticalAlign=top;spacingLeft=4;spacingRight=4;overflow=hidden;rotatable=0;points=[[0,0.5],[1,0.5]];portConstraint=eastwest;" vertex="1" parent="7SUKBqgLfpLNqHMNBb7P-28">
          <mxGeometry y="52" width="140" height="26" as="geometry" />
        </mxCell>
        <mxCell id="7SUKBqgLfpLNqHMNBb7P-34" value="+ preRequisito: boolean" style="text;strokeColor=none;fillColor=none;align=left;verticalAlign=top;spacingLeft=4;spacingRight=4;overflow=hidden;rotatable=0;points=[[0,0.5],[1,0.5]];portConstraint=eastwest;" vertex="1" parent="7SUKBqgLfpLNqHMNBb7P-28">
          <mxGeometry y="78" width="140" height="26" as="geometry" />
        </mxCell>
        <mxCell id="7SUKBqgLfpLNqHMNBb7P-35" value="+ semestre: int" style="text;strokeColor=none;fillColor=none;align=left;verticalAlign=top;spacingLeft=4;spacingRight=4;overflow=hidden;rotatable=0;points=[[0,0.5],[1,0.5]];portConstraint=eastwest;" vertex="1" parent="7SUKBqgLfpLNqHMNBb7P-28">
          <mxGeometry y="104" width="140" height="26" as="geometry" />
        </mxCell>
        <mxCell id="7SUKBqgLfpLNqHMNBb7P-47" value="Abre" style="edgeStyle=orthogonalEdgeStyle;rounded=0;orthogonalLoop=1;jettySize=auto;html=1;endArrow=none;endFill=0;startArrow=open;startFill=0;" edge="1" parent="WIyWlLk6GJQsqaUBKTNV-1" source="7SUKBqgLfpLNqHMNBb7P-40" target="7SUKBqgLfpLNqHMNBb7P-28">
          <mxGeometry relative="1" as="geometry" />
        </mxCell>
        <mxCell id="7SUKBqgLfpLNqHMNBb7P-40" value="Turma" style="swimlane;fontStyle=1;align=center;verticalAlign=top;childLayout=stackLayout;horizontal=1;startSize=26;horizontalStack=0;resizeParent=1;resizeParentMax=0;resizeLast=0;collapsible=1;marginBottom=0;" vertex="1" parent="WIyWlLk6GJQsqaUBKTNV-1">
          <mxGeometry x="429" y="580" width="207" height="164" as="geometry" />
        </mxCell>
        <mxCell id="7SUKBqgLfpLNqHMNBb7P-41" value="+ nomeTurma: String" style="text;strokeColor=none;fillColor=none;align=left;verticalAlign=top;spacingLeft=4;spacingRight=4;overflow=hidden;rotatable=0;points=[[0,0.5],[1,0.5]];portConstraint=eastwest;" vertex="1" parent="7SUKBqgLfpLNqHMNBb7P-40">
          <mxGeometry y="26" width="207" height="26" as="geometry" />
        </mxCell>
        <mxCell id="7SUKBqgLfpLNqHMNBb7P-48" value="+ qtdVagas: int" style="text;strokeColor=none;fillColor=none;align=left;verticalAlign=top;spacingLeft=4;spacingRight=4;overflow=hidden;rotatable=0;points=[[0,0.5],[1,0.5]];portConstraint=eastwest;" vertex="1" parent="7SUKBqgLfpLNqHMNBb7P-40">
          <mxGeometry y="52" width="207" height="26" as="geometry" />
        </mxCell>
        <mxCell id="7SUKBqgLfpLNqHMNBb7P-53" value="+ nomeProfessor: int" style="text;strokeColor=none;fillColor=none;align=left;verticalAlign=top;spacingLeft=4;spacingRight=4;overflow=hidden;rotatable=0;points=[[0,0.5],[1,0.5]];portConstraint=eastwest;" vertex="1" parent="7SUKBqgLfpLNqHMNBb7P-40">
          <mxGeometry y="78" width="207" height="26" as="geometry" />
        </mxCell>
        <mxCell id="7SUKBqgLfpLNqHMNBb7P-42" value="" style="line;strokeWidth=1;fillColor=none;align=left;verticalAlign=middle;spacingTop=-1;spacingLeft=3;spacingRight=3;rotatable=0;labelPosition=right;points=[];portConstraint=eastwest;strokeColor=inherit;" vertex="1" parent="7SUKBqgLfpLNqHMNBb7P-40">
          <mxGeometry y="104" width="207" height="8" as="geometry" />
        </mxCell>
        <mxCell id="7SUKBqgLfpLNqHMNBb7P-43" value="+ guardaMatricula(String): List" style="text;strokeColor=none;fillColor=none;align=left;verticalAlign=top;spacingLeft=4;spacingRight=4;overflow=hidden;rotatable=0;points=[[0,0.5],[1,0.5]];portConstraint=eastwest;" vertex="1" parent="7SUKBqgLfpLNqHMNBb7P-40">
          <mxGeometry y="112" width="207" height="26" as="geometry" />
        </mxCell>
        <mxCell id="7SUKBqgLfpLNqHMNBb7P-49" value="+ alocaProf(Professor): String" style="text;strokeColor=none;fillColor=none;align=left;verticalAlign=top;spacingLeft=4;spacingRight=4;overflow=hidden;rotatable=0;points=[[0,0.5],[1,0.5]];portConstraint=eastwest;" vertex="1" parent="7SUKBqgLfpLNqHMNBb7P-40">
          <mxGeometry y="138" width="207" height="26" as="geometry" />
        </mxCell>
        <mxCell id="7SUKBqgLfpLNqHMNBb7P-46" value="Matricula" style="edgeStyle=orthogonalEdgeStyle;rounded=0;orthogonalLoop=1;jettySize=auto;html=1;endArrow=open;endFill=0;exitX=1;exitY=0.5;exitDx=0;exitDy=0;entryX=0;entryY=0.5;entryDx=0;entryDy=0;" edge="1" parent="WIyWlLk6GJQsqaUBKTNV-1" source="7SUKBqgLfpLNqHMNBb7P-13" target="7SUKBqgLfpLNqHMNBb7P-43">
          <mxGeometry relative="1" as="geometry">
            <mxPoint x="453" y="704" as="targetPoint" />
            <Array as="points">
              <mxPoint x="396" y="362" />
              <mxPoint x="396" y="704" />
            </Array>
          </mxGeometry>
        </mxCell>
        <mxCell id="7SUKBqgLfpLNqHMNBb7P-50" style="edgeStyle=orthogonalEdgeStyle;rounded=0;orthogonalLoop=1;jettySize=auto;html=1;endArrow=open;endFill=0;" edge="1" parent="WIyWlLk6GJQsqaUBKTNV-1" source="7SUKBqgLfpLNqHMNBb7P-10" target="7SUKBqgLfpLNqHMNBb7P-49">
          <mxGeometry relative="1" as="geometry">
            <Array as="points">
              <mxPoint x="202" y="395" />
              <mxPoint x="202" y="735" />
            </Array>
          </mxGeometry>
        </mxCell>
        <mxCell id="7SUKBqgLfpLNqHMNBb7P-51" value="é Alocado para" style="edgeLabel;html=1;align=center;verticalAlign=middle;resizable=0;points=[];" vertex="1" connectable="0" parent="7SUKBqgLfpLNqHMNBb7P-50">
          <mxGeometry x="-0.0684" y="3" relative="1" as="geometry">
            <mxPoint y="1" as="offset" />
          </mxGeometry>
        </mxCell>
        <mxCell id="7SUKBqgLfpLNqHMNBb7P-60" style="edgeStyle=orthogonalEdgeStyle;rounded=0;orthogonalLoop=1;jettySize=auto;html=1;entryX=0.694;entryY=1.023;entryDx=0;entryDy=0;entryPerimeter=0;endArrow=none;endFill=0;startArrow=diamond;startFill=1;" edge="1" parent="WIyWlLk6GJQsqaUBKTNV-1" source="7SUKBqgLfpLNqHMNBb7P-56" target="7SUKBqgLfpLNqHMNBb7P-35">
          <mxGeometry relative="1" as="geometry" />
        </mxCell>
        <mxCell id="7SUKBqgLfpLNqHMNBb7P-56" value="Conteudo" style="swimlane;fontStyle=0;childLayout=stackLayout;horizontal=1;startSize=26;fillColor=none;horizontalStack=0;resizeParent=1;resizeParentMax=0;resizeLast=0;collapsible=1;marginBottom=0;" vertex="1" parent="WIyWlLk6GJQsqaUBKTNV-1">
          <mxGeometry x="657" y="588" width="140" height="52" as="geometry" />
        </mxCell>
        <mxCell id="7SUKBqgLfpLNqHMNBb7P-57" value="+ tipo: String" style="text;strokeColor=none;fillColor=none;align=left;verticalAlign=top;spacingLeft=4;spacingRight=4;overflow=hidden;rotatable=0;points=[[0,0.5],[1,0.5]];portConstraint=eastwest;" vertex="1" parent="7SUKBqgLfpLNqHMNBb7P-56">
          <mxGeometry y="26" width="140" height="26" as="geometry" />
        </mxCell>
        <mxCell id="7SUKBqgLfpLNqHMNBb7P-63" value="Aluno faz prova em polos da instituição" style="shape=note;whiteSpace=wrap;html=1;backgroundOutline=1;darkOpacity=0.05;size=13;" vertex="1" parent="WIyWlLk6GJQsqaUBKTNV-1">
          <mxGeometry x="241" y="451" width="116" height="80" as="geometry" />
        </mxCell>
      </root>
    </mxGraphModel>
  </diagram>
</mxfile>
